<?xml version="1.0" encoding="UTF-8" standalone="no"?>
<!-- Uploaded to: SVG Repo, www.svgrepo.com, Transformed by: SVG Repo Mixer Tools -->

<svg
   fill="#000000"
   height="800px"
   width="800px"
   version="1.1"
   id="Capa_1"
   viewBox="0 0 297.249 297.249"
   xml:space="preserve"
   sodipodi:docname="circular-unit-arrows.svg"
   inkscape:version="1.1.2 (0a00cf5339, 2022-02-04)"
   xmlns:inkscape="http://www.inkscape.org/namespaces/inkscape"
   xmlns:sodipodi="http://sodipodi.sourceforge.net/DTD/sodipodi-0.dtd"
   xmlns="http://www.w3.org/2000/svg"
   xmlns:svg="http://www.w3.org/2000/svg"><defs
   id="defs15"><linearGradient
     id="linearGradient25293"
     inkscape:swatch="solid"><stop
       style="stop-color:#000000;stop-opacity:1;"
       offset="0"
       id="stop25291" /></linearGradient></defs><sodipodi:namedview
   id="namedview13"
   pagecolor="#505050"
   bordercolor="#eeeeee"
   borderopacity="1"
   inkscape:pageshadow="0"
   inkscape:pageopacity="0"
   inkscape:pagecheckerboard="0"
   showgrid="false"
   inkscape:snap-nodes="false"
   inkscape:snap-text-baseline="true"
   inkscape:zoom="0.805"
   inkscape:cx="259.62733"
   inkscape:cy="398.75776"
   inkscape:window-width="1920"
   inkscape:window-height="987"
   inkscape:window-x="1920"
   inkscape:window-y="20"
   inkscape:window-maximized="1"
   inkscape:current-layer="Capa_1"
   showguides="false" />

<path
   style="fill:#cccccc;fill-opacity:1;stroke:none;stroke-width:3.44957;stroke-linecap:square;stroke-miterlimit:4;stroke-dasharray:none;stroke-dashoffset:2.4;stroke-opacity:1;paint-order:fill markers stroke"
   d="m 214.0168,253.63257 c -1.8312,-6.0111 -3.34021,-11.07386 -3.35337,-11.25055 -0.0142,-0.1908 1.06614,-0.80326 2.66029,-1.50815 15.64837,-6.91936 28.24351,-19.44964 36.02857,-35.84309 1.92889,-4.06177 2.92812,-6.73465 2.60047,-6.95604 -0.14181,-0.0958 -2.29745,-0.37 -4.79029,-0.60925 -2.49283,-0.23928 -4.5628,-0.46826 -4.59994,-0.50886 -0.10333,-0.11307 26.37626,-38.28325 26.55812,-38.28325 0.12531,0 19.23689,42.84124 19.15755,42.94429 -0.011,0.0145 -3.03752,-0.28171 -6.72516,-0.65836 -3.68766,-0.37664 -6.71526,-0.66365 -6.728,-0.63781 -0.0127,0.0258 -0.45585,1.42256 -0.98469,3.10382 -2.53359,8.05442 -5.62835,14.84322 -10.20036,22.37598 -8.92628,14.70675 -21.04878,26.28339 -35.76218,34.15187 -3.05429,1.6334 -9.66893,4.60867 -10.24598,4.60867 -0.1777,0 -1.54316,-4.12821 -3.61503,-10.92927 z"
   id="path25490" /><path
   style="fill:#cccccc;fill-opacity:1;stroke:none;stroke-width:3.67643;stroke-linecap:square;stroke-miterlimit:4;stroke-dasharray:none;stroke-dashoffset:2.4;stroke-opacity:1;paint-order:fill markers stroke"
   d="m 133.53208,280.01025 c -0.75936,-0.35583 -1.79907,-1.05504 -2.31044,-1.5538 -2.08963,-2.03808 -2.04099,-1.40711 -2.03401,-26.38396 l 0.007,-23.24709 0.89152,-1.65167 c 1.11791,-2.07111 4.00598,-4.12752 6.61892,-4.71289 1.24243,-0.27834 7.58279,-0.44512 16.70721,-0.4395 13.57642,0.008 14.83146,0.0691 16.35404,0.79124 2.00551,0.95117 2.93084,2.33289 3.19368,4.76887 0.18063,1.67407 0.076,1.96923 -1.15479,3.25482 -1.99314,2.08205 -3.13742,2.26397 -11.82282,1.87958 -4.22213,-0.18686 -9.23304,-0.34895 -11.13535,-0.3602 l -3.45874,-0.0205 v 6.81314 6.81313 l 3.06346,-0.013 c 1.6849,-0.007 6.75021,-0.17916 11.25624,-0.38233 4.95582,-0.22347 8.71294,-0.21939 9.50931,0.0103 1.52088,0.43867 3.2056,2.13145 3.82477,3.84307 0.6052,1.67306 -0.49624,3.8859 -2.55319,5.1295 -1.54983,0.93698 -1.73773,0.95123 -9.48684,0.71907 -4.34813,-0.13027 -9.64,-0.35047 -11.75972,-0.48934 l -3.85403,-0.25247 v 10.27933 c 0,11.68591 -0.10006,12.14602 -3.12926,14.38891 -1.41631,1.04865 -2.08683,1.2492 -4.50488,1.34735 -1.93556,0.0786 -3.28091,-0.0909 -4.22158,-0.53168 z"
   id="path25838" /><path
   style="fill:#cccccc;fill-opacity:1;stroke:none;stroke-width:3.67643;stroke-linecap:square;stroke-miterlimit:4;stroke-dasharray:none;stroke-dashoffset:2.4;stroke-opacity:1;paint-order:fill markers stroke"
   d="m 183.2376,235.67197 c -4.35296,-1.36295 -7.11506,-6.32534 -5.8136,-10.44472 0.67454,-2.13501 3.25992,-4.64449 5.6334,-5.468 5.92105,-2.05439 12.57299,2.14357 12.57299,7.93466 0,3.23119 -2.51423,6.57395 -5.89362,7.83581 -1.60545,0.59948 -4.81457,0.66972 -6.49917,0.14225 z m 5.85689,-3.44696 c 1.07111,-1.11888 1.61372,-3.92474 1.27266,-6.58098 -0.29754,-2.31724 -1.706,-3.59196 -3.94918,-3.57419 -3.47305,0.0275 -5.04608,3.2908 -3.81617,7.91673 0.81844,3.07827 4.4802,4.34071 6.49269,2.23844 z"
   id="path25951" /><path
   style="fill:#cccccc;fill-opacity:1;stroke:none;stroke-width:3.67643;stroke-linecap:square;stroke-miterlimit:4;stroke-dasharray:none;stroke-dashoffset:2.4;stroke-opacity:1;paint-order:fill markers stroke"
   d="m 143.29571,78.037416 c -5.04655,-0.991824 -8.43663,-2.631421 -10.5908,-5.122181 -0.79492,-0.919137 -1.58325,-2.186831 -1.75182,-2.817095 -0.16857,-0.63026 -0.3065,-10.250752 -0.3065,-21.378867 V 28.486338 l 0.89553,-1.50432 c 1.70374,-2.861956 5.63612,-5.201892 10.83327,-6.446258 2.35069,-0.562833 4.94585,-0.689519 13.76708,-0.672053 9.76563,0.01933 11.17161,0.108971 13.83497,0.88204 4.09387,1.188292 6.51592,2.389152 8.39929,4.164395 2.26046,2.130681 2.66869,3.433651 2.66869,8.517938 v 4.34889 h -7.9057 -7.9057 v -3.850733 c 0,-3.460209 -0.0902,-3.938998 -0.88939,-4.721041 -1.49624,-1.464132 -2.90242,-1.751507 -8.52435,-1.742082 -6.1744,0.01035 -8.43858,0.680004 -9.17919,2.714839 -0.25947,0.712908 -0.36445,7.722968 -0.29353,19.599444 l 0.11043,18.489575 0.94228,1.04742 c 1.32862,1.476852 4.3972,2.041865 9.91431,1.825501 4.80095,-0.188283 6.70135,-0.788136 7.51243,-2.371272 0.22386,-0.436928 0.40701,-2.478943 0.40701,-4.537815 V 60.48741 h 7.9057 7.9057 l -0.007,4.645316 c -0.006,4.041909 -0.12148,4.857365 -0.89166,6.277779 -1.79167,3.304341 -5.74493,5.484245 -12.01802,6.626981 -4.38008,0.797888 -20.77365,0.797841 -24.83355,-7e-5 z"
   id="path26029" /><path
   style="fill:#cccccc;fill-opacity:1;stroke:none;stroke-width:3.67643;stroke-linecap:square;stroke-miterlimit:4;stroke-dasharray:none;stroke-dashoffset:2.4;stroke-opacity:1;paint-order:fill markers stroke"
   d="m 189.27646,34.867015 c -3.90707,-1.241495 -6.70539,-4.789489 -6.71507,-8.514068 -0.004,-1.564637 1.95824,-5.01565 3.46962,-6.101841 2.10528,-1.51301 3.38998,-1.927886 5.96986,-1.927886 2.83369,0 5.99414,1.568554 7.70859,3.825823 1.71498,2.257957 1.92933,5.737579 0.50938,8.268628 -2.04796,3.650455 -7.05248,5.685373 -10.94238,4.449344 z m 5.41102,-3.496962 c 1.01011,-0.907616 1.11684,-1.27827 1.24999,-4.341007 0.17166,-3.948761 -0.35177,-5.140806 -2.53371,-5.77014 -3.47508,-1.002319 -6.0572,1.706445 -5.53635,5.807903 0.14146,1.114028 0.46212,2.495288 0.71256,3.069467 0.98659,2.261907 4.23334,2.917782 6.10751,1.233777 z"
   id="path26068" /><path
   style="fill:#cccccc;fill-opacity:1;stroke:none;stroke-width:3.44957;stroke-linecap:square;stroke-miterlimit:4;stroke-dasharray:none;stroke-dashoffset:2.4;stroke-opacity:1;paint-order:fill markers stroke"
   d="m 89.406792,52.676927 c 1.05331,6.19493 1.90743,11.40829 1.89806,11.58522 -0.0101,0.19106 -1.15949,0.66142 -2.83022,1.15824 -16.40014,4.87692 -30.48403,15.70696 -40.28715,30.979533 -2.4289,3.78405 -3.75935,6.30846 -3.46245,6.56965 0.1285,0.11302 2.23189,0.65865 4.67419,1.21241 2.44229,0.5538 4.46645,1.04369 4.49813,1.08868 0.0881,0.12527 -31.02268,34.62524 -31.20307,34.60216 -0.1243,-0.0159 -13.6428503,-44.93665 -13.5510703,-45.0288 0.0128,-0.013 2.9771903,0.66503 6.5871803,1.50675 3.61002,0.84172 6.57669,1.51074 6.59261,1.48673 0.0159,-0.024 0.63274,-1.35319 1.37073,-2.95371 3.53555,-7.667643 7.46707,-14.008663 12.95832,-20.900093 10.721,-13.45464 24.215,-23.39875 39.80822,-29.3358 3.23693,-1.23247 10.17575,-3.34398 10.74813,-3.27073 0.17627,0.0226 1.00663,4.29071 2.19839,11.29976 z"
   id="path25490-5" /></svg>
